<svg width="32" height="32" fill="none" xmlns="http://www.w3.org/2000/svg"><g clip-path="url(#a)"><path d="M16 2.667C8.64 2.667 2.667 8.64 2.667 16S8.64 29.333 16 29.333 29.333 23.36 29.333 16 23.36 2.667 16 2.667ZM9.427 24.373C10 23.173 13.493 22 16 22c2.507 0 6.013 1.173 6.573 2.373A10.523 10.523 0 0 1 16 26.667c-2.48 0-4.76-.854-6.573-2.294ZM24.48 22.44c-1.907-2.32-6.533-3.107-8.48-3.107s-6.573.787-8.48 3.107A10.6 10.6 0 0 1 5.333 16C5.333 10.12 10.12 5.333 16 5.333S26.667 10.12 26.667 16a10.6 10.6 0 0 1-2.187 6.44ZM16 8a4.655 4.655 0 0 0-4.667 4.667A4.655 4.655 0 0 0 16 17.333a4.655 4.655 0 0 0 4.667-4.666A4.655 4.655 0 0 0 16 8Zm0 6.667c-1.107 0-2-.894-2-2 0-1.107.893-2 2-2s2 .893 2 2c0 1.106-.893 2-2 2Z" fill="#494961"/></g><defs><clipPath id="a"><path fill="#fff" d="M0 0h32v32H0z"/></clipPath></defs></svg>